# xmcd CD database file
#
# Track frame offsets:
#	150
#	44240
#	63215
#	87025
#	103892
#	132642
#	167582
#
# Disc length: 2655 seconds
#
# Revision: 0
# Processed by: cddbd v1.4PL0 Copyright (c) Steve Scherf et al.
# Submitted via: CDex 1.50Beta3
#
DISCID=600a5d07
DTITLE=Marion Brown Quartet - Offering
DYEAR=1993
DGENRE=Jazz
TTITLE0=Terra
TTITLE1=Self Portrait In Three Colors
TTITLE2=Ode to Coltrane
TTITLE3=Sly Entrance
TTITLE4=Golden Lady In The Graham Cracker Window
TTITLE5=Bershire Blues
TTITLE6=After The Rain
EXTD=YEAR: 1993
EXTT0=
EXTT1=
EXTT2=
EXTT3=
EXTT4=
EXTT5=
EXTT6=
PLAYORDER=
